<svg width="73" height="542" viewBox="0 0 73 542" fill="none" xmlns="http://www.w3.org/2000/svg">
<path d="M72.346 541.018L1.34595 541.018L1.34595 511.618C1.34595 508.552 2.01261 505.752 3.34594 503.218C4.61261 500.618 6.31262 498.385 8.44595 496.518C10.5126 494.652 12.8793 493.185 15.5459 492.118C18.2126 491.052 20.9126 490.518 23.646 490.518C26.5793 490.518 29.4126 491.018 32.146 492.018C34.8126 493.018 37.1793 494.418 39.246 496.218C41.3126 498.018 42.9793 500.185 44.246 502.718C45.5126 505.185 46.146 507.952 46.146 511.018V534.018H72.346V541.018ZM39.946 534.018L39.946 511.318C39.946 509.252 39.5126 507.385 38.646 505.718C37.7126 503.985 36.5126 502.518 35.046 501.318C33.5126 500.118 31.7793 499.185 29.846 498.518C27.846 497.852 25.7793 497.518 23.646 497.518C21.4459 497.518 19.3793 497.918 17.4459 498.718C15.4459 499.452 13.7126 500.485 12.246 501.818C10.7793 503.085 9.64595 504.618 8.84595 506.418C7.97928 508.152 7.54595 509.985 7.54595 511.918V534.018H39.946ZM72.846 450.211C72.846 455.145 71.846 459.678 69.846 463.811C67.7793 467.878 65.0793 471.378 61.746 474.311C58.346 477.245 54.4793 479.511 50.146 481.111C45.8126 482.711 41.3793 483.511 36.846 483.511C32.1126 483.511 27.5793 482.678 23.2459 481.011C18.9126 479.278 15.0793 476.911 11.746 473.911C8.41262 470.911 5.77928 467.378 3.84594 463.311C1.84595 459.245 0.845947 454.845 0.845947 450.111C0.845947 445.178 1.91261 440.678 4.04595 436.611C6.11262 432.478 8.84595 428.978 12.246 426.111C15.646 423.178 19.5126 420.911 23.846 419.311C28.1126 417.711 32.4793 416.911 36.946 416.911C41.6793 416.911 46.2126 417.778 50.546 419.511C54.8793 421.178 58.7126 423.511 62.046 426.511C65.3126 429.444 67.946 432.944 69.946 437.011C71.8793 441.078 72.846 445.478 72.846 450.211ZM36.846 476.511C40.7126 476.511 44.446 475.878 48.046 474.611C51.5793 473.345 54.746 471.545 57.546 469.211C60.2793 466.878 62.4793 464.111 64.146 460.911C65.746 457.711 66.546 454.145 66.546 450.211C66.546 446.211 65.6793 442.578 63.946 439.311C62.2126 436.044 59.946 433.278 57.146 431.011C54.346 428.744 51.1793 427.011 47.646 425.811C44.1126 424.544 40.5126 423.911 36.846 423.911C32.9793 423.911 29.2793 424.578 25.746 425.911C22.1459 427.178 18.9793 428.978 16.2459 431.311C13.5126 433.644 11.3459 436.411 9.74595 439.611C8.07928 442.811 7.24595 446.344 7.24595 450.211C7.24595 454.211 8.11262 457.845 9.84595 461.111C11.5126 464.378 13.7459 467.145 16.5459 469.411C19.3459 471.678 22.5126 473.445 26.046 474.711C29.5793 475.911 33.1793 476.511 36.846 476.511ZM72.346 403.714H1.34595L1.34595 373.714C1.34595 370.647 2.01261 367.847 3.34594 365.314C4.61261 362.714 6.31262 360.48 8.44595 358.614C10.5126 356.747 12.8793 355.314 15.5459 354.314C18.2126 353.247 20.9126 352.713 23.646 352.713C26.246 352.713 28.746 353.113 31.146 353.914C33.4793 354.647 35.6126 355.713 37.546 357.114C39.4126 358.447 41.0126 360.08 42.346 362.013C43.6126 363.947 44.4793 366.114 44.946 368.514L72.346 351.114V359.014L46.146 375.714L46.146 396.714H72.346V403.714ZM39.946 396.714V373.514C39.946 371.447 39.5126 369.58 38.646 367.914C37.7126 366.18 36.4793 364.714 34.946 363.514C33.4126 362.314 31.6793 361.38 29.746 360.713C27.8126 360.047 25.7793 359.713 23.646 359.713C21.5126 359.713 19.4793 360.113 17.5459 360.914C15.5459 361.647 13.8126 362.68 12.3459 364.014C10.8793 365.28 9.71261 366.814 8.84595 368.614C7.97928 370.347 7.54595 372.18 7.54595 374.114L7.54595 396.714H39.946ZM7.54595 289.056L7.54595 314.356H72.346V321.356H7.54595V346.656H1.34595L1.34595 289.056H7.54595ZM72.346 278.421H1.34595L1.34595 231.821H7.54595L7.54595 271.421H33.646L33.646 238.021H39.446L39.446 271.421H72.346V278.421ZM72.846 192.496C72.846 197.43 71.846 201.963 69.846 206.096C67.7793 210.163 65.0793 213.663 61.746 216.596C58.346 219.53 54.4793 221.796 50.146 223.396C45.8126 224.996 41.3793 225.796 36.846 225.796C32.1126 225.796 27.5793 224.963 23.2459 223.296C18.9126 221.563 15.0793 219.196 11.746 216.196C8.41262 213.196 5.77928 209.663 3.84594 205.596C1.84595 201.53 0.845947 197.13 0.845947 192.396C0.845947 187.463 1.91261 182.963 4.04595 178.896C6.11262 174.763 8.84595 171.263 12.246 168.396C15.646 165.463 19.5126 163.196 23.846 161.596C28.1126 159.996 32.4793 159.196 36.946 159.196C41.6793 159.196 46.2126 160.063 50.546 161.796C54.8793 163.463 58.7126 165.796 62.046 168.796C65.3126 171.73 67.946 175.23 69.946 179.296C71.8793 183.363 72.846 187.763 72.846 192.496ZM36.846 218.796C40.7126 218.796 44.446 218.163 48.046 216.896C51.5793 215.63 54.746 213.83 57.546 211.496C60.2793 209.163 62.4793 206.396 64.146 203.196C65.746 199.996 66.546 196.43 66.546 192.496C66.546 188.496 65.6793 184.863 63.946 181.596C62.2126 178.33 59.946 175.563 57.146 173.296C54.346 171.03 51.1793 169.296 47.646 168.096C44.1126 166.83 40.5126 166.196 36.846 166.196C32.9793 166.196 29.2793 166.863 25.746 168.196C22.1459 169.463 18.9793 171.263 16.2459 173.596C13.5126 175.93 11.3459 178.696 9.74595 181.896C8.07928 185.096 7.24595 188.63 7.24595 192.496C7.24595 196.496 8.11262 200.13 9.84595 203.396C11.5126 206.663 13.7459 209.43 16.5459 211.696C19.3459 213.963 22.5126 215.73 26.046 216.996C29.5793 218.196 33.1793 218.796 36.846 218.796ZM72.346 145.999H1.34595V138.999H66.146V97.9986H72.346V145.999ZM72.346 87.6978H1.34595V80.6978H72.346V87.6978ZM72.846 34.2931C72.846 39.2265 71.846 43.7598 69.846 47.8932C67.7793 51.9598 65.0793 55.4598 61.746 58.3932C58.346 61.3265 54.4793 63.5932 50.146 65.1932C45.8126 66.7932 41.3793 67.5932 36.846 67.5932C32.1126 67.5932 27.5793 66.7598 23.2459 65.0932C18.9126 63.3598 15.0793 60.9932 11.746 57.9932C8.41262 54.9932 5.77928 51.4598 3.84594 47.3932C1.84595 43.3265 0.845947 38.9265 0.845947 34.1931C0.845947 29.2598 1.91261 24.7598 4.04595 20.6931C6.11262 16.5598 8.84595 13.0598 12.246 10.1931C15.646 7.25981 19.5126 4.99315 23.846 3.39315C28.1126 1.79315 32.4793 0.993147 36.946 0.993147C41.6793 0.993147 46.2126 1.85981 50.546 3.59314C54.8793 5.25981 58.7126 7.59315 62.046 10.5931C65.3126 13.5265 67.946 17.0265 69.946 21.0931C71.8793 25.1598 72.846 29.5598 72.846 34.2931ZM36.846 60.5932C40.7126 60.5932 44.446 59.9598 48.046 58.6932C51.5793 57.4265 54.746 55.6265 57.546 53.2932C60.2793 50.9598 62.4793 48.1932 64.146 44.9932C65.746 41.7932 66.546 38.2265 66.546 34.2931C66.546 30.2931 65.6793 26.6598 63.946 23.3931C62.2126 20.1265 59.946 17.3598 57.146 15.0931C54.346 12.8265 51.1793 11.0931 47.646 9.89315C44.1126 8.62648 40.5126 7.99315 36.846 7.99315C32.9793 7.99315 29.2793 8.65981 25.746 9.99315C22.1459 11.2598 18.9793 13.0598 16.2459 15.3931C13.5126 17.7265 11.3459 20.4931 9.74595 23.6931C8.07928 26.8931 7.24595 30.4265 7.24595 34.2931C7.24595 38.2931 8.11262 41.9265 9.84595 45.1932C11.5126 48.4598 13.7459 51.2265 16.5459 53.4932C19.3459 55.7598 22.5126 57.5265 26.046 58.7932C29.5793 59.9932 33.1793 60.5932 36.846 60.5932Z" fill="url(#paint0_linear)" fill-opacity="0.59"/>
<defs>
<linearGradient id="paint0_linear" x1="-21.6541" y1="265.494" x2="118.001" y2="265.101" gradientUnits="userSpaceOnUse">
<stop stop-color="white" stop-opacity="0.85"/>
<stop offset="0.786458" stop-opacity="0.58"/>
</linearGradient>
</defs>
</svg>
