<svg width="47" height="56" viewBox="0 0 47 56" fill="none" xmlns="http://www.w3.org/2000/svg">
<g opacity="0.16">
<path d="M45.5917 37.1691V27.5039C45.5917 27.0559 45.4739 26.6159 45.2502 26.2278L38.2448 14.082C37.7887 13.2912 36.9453 12.8042 36.0323 12.8042H25.1882V9.40228C25.1882 7.9918 24.0446 6.84821 22.6341 6.84821H-28.5042C-29.9147 6.84821 -31.0583 7.99165 -31.0583 9.40228V36.9727C-32.1725 37.2472 -33 38.2504 -33 39.4494C-33 40.8599 -31.8564 42.0035 -30.4459 42.0035H-23.0948C-22.4171 46.0541 -18.8887 49.152 -14.6485 49.152C-10.4083 49.152 -6.8799 46.0543 -6.20224 42.0035H24.2452C24.9229 46.0541 28.4513 49.152 32.6915 49.152C36.9317 49.152 40.4601 46.0543 41.1378 42.0035H44.4458C45.8562 42.0035 46.9998 40.8601 46.9998 39.4494C47.0003 38.4513 46.4264 37.5893 45.5917 37.1691ZM-14.6482 44.0438C-16.5549 44.0438 -18.106 42.4927 -18.106 40.586C-18.106 38.6793 -16.5549 37.1282 -14.6482 37.1282C-12.7415 37.1282 -11.1904 38.6793 -11.1904 40.586C-11.1905 42.4927 -12.7416 44.0438 -14.6482 44.0438ZM20.0804 36.8954H-6.91959C-8.30084 34.0146 -11.246 32.0202 -14.6484 32.0202C-18.0507 32.0202 -20.996 34.0146 -22.3771 36.8954H-25.9501V11.9562H20.0804V36.8954ZM25.1884 17.9122H34.557L38.0637 23.9919H25.1884V17.9122ZM32.6918 44.0438C30.7851 44.0438 29.234 42.4927 29.234 40.586C29.234 38.6793 30.7851 37.1282 32.6918 37.1282C34.5985 37.1282 36.1496 38.6793 36.1496 40.586C36.1496 42.4927 34.5984 44.0438 32.6918 44.0438ZM40.4836 36.8954H40.4206C39.0393 34.0146 36.0942 32.0202 32.6918 32.0202C29.4638 32.0202 26.6482 33.8155 25.1882 36.4596V29.0997H40.4836V36.8954Z" fill="#FCFCFC"/>
</g>
</svg>
