<svg width="46" height="56" viewBox="0 0 46 56" fill="none" xmlns="http://www.w3.org/2000/svg">
<g opacity="0.16">
<g clip-path="url(#clip0)">
<path d="M31.717 23.2001C31.3776 23.2001 31.0422 23.2162 30.7087 23.2398L29.7272 19.7358C30.7822 19.0783 31.3254 17.7835 30.9734 16.526L29.8468 12.5049C29.4945 11.2475 28.3579 10.4233 27.1145 10.4096L26.3379 7.63723C26.0409 6.57707 25.1637 5.78003 24.0803 5.5855L16.8013 4.27894C15.2421 3.99925 13.7479 5.03675 13.4681 6.59785C13.1878 8.15879 14.2262 9.65129 15.787 9.93129L21.2937 10.9196L22.0928 13.7718L17.0287 15.0508C16.4446 13.7788 15.0043 13.0902 13.6215 13.4929L10.5587 14.3836C9.28102 14.7552 8.46259 15.9371 8.49258 17.2072L2.53788 18.7115L-19.0917 13.8871C-20.6392 13.5411 -22.1742 14.5166 -22.5194 16.0644C-22.8645 17.6122 -21.8898 19.1469 -20.3418 19.4921L-14.8653 20.7138C-14.7265 21.0208 -14.534 21.3098 -14.2817 21.5621L-7.04979 28.7941L-7.77792 29.657C-10.3332 25.7719 -14.7293 23.2005 -19.7168 23.2005C-27.5926 23.2001 -34 29.6076 -34 37.4832C-34 45.3589 -27.5926 51.7664 -19.7168 51.7664C-13.5454 51.7664 -8.27667 47.8314 -6.2851 42.339C-5.51619 42.7129 -4.72119 42.9039 -3.90306 42.9039H12.0892C14.1893 42.9039 16.1992 42.3212 17.9381 41.2371C19.5909 47.2971 25.1404 51.7665 31.717 51.7665C39.5928 51.7665 46.0002 45.3592 46.0002 37.4834C46.0002 29.6076 39.5928 23.2001 31.717 23.2001ZM-19.7168 46.0235C-24.4259 46.0235 -28.2572 42.1923 -28.2572 37.4832C-28.2572 32.7741 -24.4259 28.9429 -19.7168 28.9429C-17.0922 28.9429 -14.7411 30.134 -13.1734 32.0031L-20.7123 34.7898C-22.1998 35.3398 -22.9598 36.9912 -22.4101 38.4787C-21.9817 39.6379 -20.884 40.3553 -19.7165 40.3553C-19.3859 40.3553 -19.0497 40.2976 -18.7215 40.1765L-11.1792 37.3885C-11.1789 37.4201 -11.1768 37.4513 -11.1768 37.4831C-11.1767 42.1923 -15.0078 46.0235 -19.7168 46.0235ZM17.4343 31.8162C17.4343 33.2438 16.8784 34.5859 15.8687 35.5956C14.8592 36.6049 13.517 37.161 12.0893 37.161H-3.80213C-4.15681 36.996 -4.72276 36.3488 -5.24604 35.5603L-0.959309 30.4813C0.0030365 29.3412 -0.0682144 27.654 -1.12321 26.599L-4.7526 22.9696L1.95367 24.4655C2.15945 24.5115 2.36929 24.5344 2.57882 24.5344C2.81507 24.5344 3.05148 24.5054 3.2821 24.4469L17.4343 20.8721V31.8162ZM23.177 19.4213L23.6421 19.3038L25.1793 24.7909C24.4768 25.1541 23.8059 25.5707 23.177 26.0413V19.4213ZM31.717 46.0235C27.0079 46.0235 23.1768 42.1923 23.1768 37.4832C23.1768 34.611 24.6036 32.0674 26.7839 30.5185L28.952 38.2578C29.3073 39.5257 30.4603 40.3554 31.7156 40.3554C31.9719 40.3554 32.2326 40.3207 32.4919 40.2482C34.0189 39.8204 34.91 38.2357 34.4822 36.7087L32.3131 28.966C36.745 29.2732 40.2575 32.9745 40.2575 37.4832C40.2573 42.1923 36.4262 46.0235 31.717 46.0235Z" fill="#FCFCFC"/>
</g>
</g>
<defs>
<clipPath id="clip0">
<rect x="-34" y="-12" width="80" height="80" fill="white"/>
</clipPath>
</defs>
</svg>
