<svg width="50" height="56" viewBox="0 0 50 56" fill="none" xmlns="http://www.w3.org/2000/svg">
<g opacity="0.16">
<path d="M38.7296 23.9234H32.047L26.5327 11.8138C26.0891 10.8397 25.0669 10.2644 24.0027 10.3935L0.676058 13.2165C-8.5096 14.328 -16.8374 19.2937 -22.1833 26.8432L-26.1362 31.8169C-26.4815 32.2514 -26.6697 32.79 -26.6697 33.3448V34.9955H-27.5442C-28.9005 34.9955 -30 36.095 -30 37.4513C-30 38.8075 -28.9005 39.907 -27.5442 39.907H-26.6697V42.1441C-26.6697 43.5003 -25.5701 44.5999 -24.2139 44.5999H-17.8193C-16.6054 47.545 -13.7051 49.6243 -10.3271 49.6243C-6.94913 49.6243 -4.04865 47.5452 -2.83505 44.5999H26.6312C27.8451 47.545 30.7454 49.6243 34.1232 49.6243C37.5012 49.6243 40.4017 47.5452 41.6154 44.5999H47.5439C48.9002 44.5999 49.9997 43.5003 49.9997 42.1441V35.1939C50.0003 28.9793 44.9442 23.9234 38.7296 23.9234ZM22.8077 15.4855L26.6499 23.9234H5.35248V18.0565C5.35248 17.9015 5.33639 17.7502 5.30889 17.6032L22.8077 15.4855ZM0.440744 18.2068V23.9234H-12.712C-8.92867 20.9317 -4.39802 18.9402 0.440744 18.2068ZM-10.327 44.7128C-12.0856 44.7128 -13.516 43.2822 -13.516 41.5239C-13.516 39.7655 -12.0854 38.335 -10.327 38.335C-8.56851 38.335 -7.13804 39.7656 -7.13804 41.5239C-7.13788 43.2822 -8.56835 44.7128 -10.327 44.7128ZM34.1237 44.7128C32.3651 44.7128 30.9348 43.2822 30.9348 41.5239C30.9348 39.7655 32.3652 38.335 34.1237 38.335C35.8821 38.335 37.3129 39.7656 37.3129 41.5239C37.3128 43.2822 35.8821 44.7128 34.1237 44.7128ZM45.0887 39.6884H45.0886H42.012C41.1779 36.1033 37.9589 33.4231 34.1235 33.4231C30.2882 33.4231 27.0693 36.1033 26.2352 39.6884H-2.43864C-3.27271 36.1033 -6.49163 33.4231 -10.327 33.4231C-14.1623 33.4231 -17.3814 36.1033 -18.2154 39.6884H-21.7579V34.2019L-18.2953 29.845C-18.2657 29.8079 -18.2375 29.7701 -18.2103 29.7317C-17.9959 29.4278 -17.7764 29.129 -17.552 28.835H30.414C30.4502 28.8357 30.4863 28.8357 30.5226 28.835H38.7296C42.2359 28.835 45.0886 31.6875 45.0886 35.1939V39.6884H45.0887Z" fill="#FCFCFC"/>
<path d="M13.9206 31.1331H10.7283C9.372 31.1331 8.27246 32.2326 8.27246 33.5889C8.27246 34.9452 9.372 36.0447 10.7283 36.0447H13.9206C15.2769 36.0447 16.3764 34.9452 16.3764 33.5889C16.3764 32.2326 15.2769 31.1331 13.9206 31.1331Z" fill="#FCFCFC"/>
</g>
</svg>
