<svg width="139" height="52" viewBox="0 0 139 52" fill="none" xmlns="http://www.w3.org/2000/svg">
<path fill-rule="evenodd" clip-rule="evenodd" d="M110.793 9.5655L110.261 10.4323C109.596 11.7654 108.865 13.0986 108.3 14.4651C107.868 15.465 107.569 16.5314 107.237 17.5646L64.9004 17.8979L64.701 17.4646L78.1595 9.5655C80.3197 8.43239 82.513 7.46586 84.839 6.79935C86.0354 6.46602 87.1985 6.16618 88.3949 5.93278L89.5246 5.7327L94.5758 5.26611L114.415 4.89944C113.053 6.39939 111.823 7.86584 110.793 9.5655ZM116.11 3.49963L94.6755 3.8661C92.8479 4.03287 90.9868 4.13281 89.1592 4.39935L88.2288 4.53279L84.5069 5.43267L81.3499 6.49916L78.193 7.96561L62.8735 16.9312L64.1363 19.2643L108.267 18.9309C108.633 17.731 108.965 16.5644 109.397 15.3978C110.893 11.5983 113.053 8.23195 115.944 5.3322L116.608 4.66569L116.11 3.49963ZM71.9123 8.29913L69.6858 9.43223C66.2297 11.3986 62.7406 13.2983 59.351 15.3982L56.8254 16.9314C56.36 17.0313 55.9614 17.1313 55.4961 17.1979C54.466 17.2979 53.3692 16.9978 52.339 16.8648L59.3176 13.1651L64.4353 10.5987L64.6345 10.5653L70.2173 7.86549L78.8573 4.09933C79.2231 4.03268 79.5553 4.09933 79.9207 4.13264L80.0537 4.23258C77.3288 5.56613 74.604 6.86581 71.9123 8.29913ZM6.71262 28.73C6.94535 27.6635 7.84255 26.8303 8.54023 26.0636L15.9175 25.8302C16.2165 25.9304 16.4825 26.0636 16.3163 26.3969C16.0838 26.93 16.3163 26.4969 15.3527 27.4303C14.3558 28.3969 14.6548 27.9966 14.2894 28.5634L14.1565 28.73H6.71262ZM5.64931 27.5969C5.44979 27.9636 5.35013 28.3635 5.21723 28.73H4.65226C4.81857 27.93 5.01772 27.1302 5.61608 26.5302C5.88187 26.2637 6.14766 26.2303 6.51328 26.097C6.71279 26.3303 6.57973 26.1637 6.18105 26.7303C5.74897 27.3637 5.9151 27.097 5.64931 27.5969ZM9.4376 32.7629L8.65563 33.4462L3.1802 33.5239C2.88121 33.3241 3.22333 32.6297 3.18993 32.2962L9.5371 32.3297L9.4376 32.7629ZM2.82466 41.4953C2.55869 41.1954 2.19324 40.9287 1.99391 40.562C1.79457 40.2287 1.72812 39.8288 1.62845 39.4623L11.8968 39.4955L20.1715 39.6955L20.4375 40.2623L20.3709 42.3285L2.82466 41.4953ZM105.176 0.0334944L100.624 0C97.5001 0.0334944 94.4096 0.0334944 91.3192 0.33334L89.8903 0.466606C87.7634 0.766452 85.6698 1.09979 83.5431 1.49976C81.9483 1.8331 80.3863 2.19958 78.7913 2.56623C77.1629 3.39951 75.6011 4.03287 73.8399 4.7995L69.8521 6.49916C65.1332 8.76572 60.4145 11.0321 55.762 13.4651C53.8014 14.4984 51.874 15.5649 49.9134 16.6314C42.3368 17.2645 34.7268 17.7978 27.1502 18.7312L25.0566 18.9979L18.1446 20.2312C17.7126 20.431 17.6793 20.3644 16.8486 20.5309L15.6855 20.7309C13.6585 21.2308 11.6312 21.6974 9.60425 22.2307L7.51068 22.7639C7.01215 22.964 6.54703 23.1306 6.08173 23.3971C4.91858 24.0636 3.85526 25.1303 3.22386 26.2969C2.89145 26.8634 3.02452 26.5967 2.82501 27.1301C2.62549 27.6633 2.55906 28.23 2.45937 28.7966L2.06053 28.8966L0 30.7298L0.23256 32.963L0.830927 33.2627C0.830927 34.1627 0.86415 35.0292 0.930418 35.9292C1.2296 36.0625 1.6615 36.0959 1.86083 36.3958C2.09357 36.7959 2.15984 37.3291 2.2929 37.7622C1.52861 37.8622 0.59819 37.8958 0.232383 38.6954C0.033223 39.1954 0.232383 39.7619 0.398675 40.2621C0.664458 40.9951 0.531743 40.6618 0.797527 41.2285C1.09653 41.7949 0.897195 41.4618 1.52843 42.1618C2.12662 42.795 1.86066 42.6616 2.19307 42.8282L2.29274 42.8616L21.5668 43.7617C21.6001 43.6615 21.5668 43.1951 21.6663 43.1283V43.0949C21.7659 41.1952 21.7328 39.2954 22.198 37.4621C23.0621 34.1293 25.222 31.2963 28.1798 29.563C30.2732 28.3633 32.5995 27.6299 34.9588 27.33C35.7563 27.2301 36.0885 27.1967 36.8198 27.2631L36.9859 25.8967C35.4905 25.6967 33.962 26.03 32.533 26.3965C29.1766 27.2629 26.0195 28.7963 23.7933 31.4627C22.2979 33.2624 21.1679 35.4622 20.7358 37.7285C20.6362 38.2952 20.7691 38.1286 20.6029 38.2951L20.5366 38.3617L12.5609 38.1286L3.62165 38.095C3.85439 37.6619 3.58843 37.3286 3.45554 36.8288C3.25603 36.2286 3.0899 35.5288 2.62462 35.0623C2.52493 34.9623 2.35865 34.9623 2.22594 34.9623L2.19271 34.0624L3.64516 34.7677L8.53988 34.529C8.97177 34.429 9.3708 34.3289 9.76948 34.1623C10.1019 33.9958 10.3677 33.7956 10.6336 33.5957C10.7997 32.9291 11.1654 32.1957 10.7665 31.5627C10.6336 31.296 10.3678 31.1292 10.0687 31.0294L9.86933 30.9626L2.59157 30.9294L1.69438 31.829L1.79404 32.2957L1.49485 31.9959L1.46163 31.3293L2.82413 30.0961H14.887C15.3854 29.4297 15.751 28.9964 16.3823 28.3631C17.0138 27.7298 17.8112 27.1299 17.7447 26.1634C17.7116 25.1969 16.9472 24.5968 16.05 24.4969L15.6512 24.4635C12.6272 24.6301 9.56997 24.697 6.54597 24.7634C7.57606 23.8969 9.7693 23.5968 10.7331 23.3636L13.6907 22.5972C18.8749 21.4639 24.0589 20.4306 29.3426 19.8306L30.971 19.6639C35.1582 19.2642 39.3451 18.8973 43.5323 18.5308C46.2238 18.2975 48.0184 17.9974 50.3448 17.9974L54.7976 18.5974C55.7613 18.564 56.7583 18.4974 57.6555 18.0309L57.8882 17.9309L62.441 15.0978L69.8847 10.9316L70.051 10.8648C72.6762 9.46501 75.2683 8.09851 77.96 6.79865L80.984 5.33201C81.3494 4.93223 81.7816 4.63221 81.7816 4.06565C81.8147 3.76562 81.7151 3.59904 81.5822 3.33233C83.742 2.89905 85.9023 2.46576 88.0956 2.13259L90.189 1.83256C91.485 1.69931 92.7477 1.56604 94.0105 1.49923L95.0738 1.43242C104.644 1.36579 114.215 1.43242 123.786 1.46574L123.819 0.0994141C117.605 0.100127 111.391 0.100127 105.176 0.0334944Z" fill="#333333"/>
<path fill-rule="evenodd" clip-rule="evenodd" d="M110.329 50.4274H115.047V35.3625L121.594 50.4274H125.582L132.162 35.3625V50.4274H136.847L136.814 30.2966H130.467L123.555 45.6948L116.775 30.2966H110.329L110.329 50.4274ZM88.3299 30.2966V42.8618C88.3299 44.9616 88.5289 46.8279 90.39 48.4612C91.9518 49.861 94.4775 50.9276 96.8701 50.9276C99.4621 50.9276 101.955 49.8611 103.616 48.2946C105.278 46.7281 105.477 44.8282 105.477 42.8618V30.2966H100.758V42.8618C100.758 43.9283 100.791 44.9616 100.094 45.8947C99.3959 46.7613 98.0997 47.2945 96.8702 47.2945C95.4081 47.2945 94.2119 46.6281 93.5141 45.5948C92.9491 44.7614 93.0156 43.7951 93.0156 42.8618V30.2966H88.3299ZM78.6927 50.4274H83.4116V30.2966H78.6927V50.4274ZM59.3854 46.8279V33.9629H59.7177C62.1768 33.9629 64.802 33.9963 66.9288 35.1294C69.1553 36.3292 70.2852 38.3955 70.2852 40.4621C70.2852 42.4287 69.2217 44.2284 67.228 45.4281C65.0344 46.7281 62.6087 46.8279 59.9504 46.8279H59.3854ZM54.6665 50.4274H60.0831C63.9713 50.4274 67.5934 50.1941 70.6505 48.1279C73.3756 46.2614 75.0039 43.2617 75.0039 40.4621C75.0039 37.5958 73.4089 34.4961 70.6505 32.6631C67.6599 30.6299 63.7717 30.3633 59.9835 30.2967H54.6665V50.4274ZM37.6854 33.5627C42.4375 33.5627 46.2258 36.5958 46.2258 40.3955C46.2258 44.095 42.3377 47.2945 37.6854 47.2945C33.0663 47.2945 29.1781 44.095 29.1781 40.3955C29.1781 36.5958 32.9665 33.5627 37.6854 33.5627ZM37.6854 29.9299C30.3745 29.9299 24.4594 34.6293 24.4594 40.4619C24.4594 46.2944 30.4742 50.9275 37.6854 50.9275C44.9297 50.9275 50.9446 46.2944 50.9446 40.4619C50.9445 34.6293 45.0294 29.9299 37.6854 29.9299Z" fill="#D6342E"/>
<path fill-rule="evenodd" clip-rule="evenodd" d="M117.279 29.4258L123.5 43.556L129.843 29.4258H137.619L137.655 51.299H131.231V39.5225L126.087 51.299H120.963L115.854 39.5419V51.299H109.398V29.4258H117.279ZM93.8213 42.8621C93.8213 43.295 93.8028 43.7357 93.8529 44.1647C93.8963 44.5365 93.9896 44.8397 94.17 45.1059C94.6995 45.8896 95.621 46.4239 96.8075 46.4239C97.8247 46.4239 98.8417 45.9749 99.3457 45.3597C99.5844 45.036 99.7052 44.691 99.767 44.2944C99.8394 43.8298 99.8273 43.3497 99.8273 42.8621V29.4258H106.283V42.8621C106.283 44.8743 106.088 47.1009 104.149 48.9295C102.328 50.6456 99.6242 51.799 96.8075 51.799C94.1913 51.799 91.4621 50.6466 89.749 49.1111C87.5986 47.2197 87.3987 45.0196 87.3987 42.8621V29.4258H93.8213V42.8621ZM84.2176 29.4258V51.299H77.7617V29.4258H84.2176ZM60.1916 45.9566C62.724 45.9468 64.8324 45.7994 66.7238 44.6784C68.4917 43.6129 69.3543 42.0785 69.3543 40.4622C69.3543 38.7266 68.4091 36.9497 66.4554 35.8967C64.6889 34.9571 62.4959 34.846 60.1916 34.8349V45.9566ZM59.9287 29.4258C63.6979 29.492 67.8452 29.746 71.0756 31.9421C74.0631 33.9313 75.8099 37.2959 75.8099 40.4622C75.8099 43.5839 74.0082 46.8404 71.0758 48.8488C67.7783 51.0776 63.9079 51.2988 60.0208 51.2988H53.7355V29.4258H59.9287ZM37.6231 46.4239C41.974 46.4239 45.2949 43.453 45.2949 40.3958C45.2949 37.2493 42.087 34.4342 37.6231 34.4342C33.1946 34.4342 29.9844 37.2472 29.9844 40.3958C29.9844 43.4549 33.3078 46.4239 37.6231 46.4239ZM110.328 50.4279H115.046V35.3628L121.593 50.4279H125.581L132.16 35.3628V50.4279H136.846L136.813 30.2968H130.466L123.554 45.6952L116.774 30.2968H110.327L110.328 50.4279ZM88.3288 30.2968V42.8621C88.3288 44.9619 88.5279 46.8283 90.389 48.4615C91.9508 49.8613 94.4764 50.9279 96.8691 50.9279C99.4611 50.9279 101.953 49.8614 103.615 48.2949C105.277 46.7283 105.476 44.8285 105.476 42.8621V30.2968H100.757V42.8621C100.757 43.9287 100.79 44.9619 100.093 45.895C99.3949 46.7616 98.0987 47.2948 96.8692 47.2948C95.4071 47.2948 94.2109 46.6284 93.513 45.5953C92.9483 44.7617 93.0146 43.7954 93.0146 42.8621V30.2968H88.3288ZM78.6917 50.4279H83.4105V30.2968H78.6917V50.4279ZM59.3844 46.8283V33.9632H59.7167C62.1758 33.9632 64.8009 33.9966 66.9278 35.1297C69.1543 36.3295 70.2842 38.3959 70.2842 40.4623C70.2842 42.429 69.2206 44.2287 67.227 45.4285C65.0336 46.7283 62.6077 46.8283 59.9493 46.8283H59.3844ZM54.6655 50.4279H60.082C63.9702 50.4279 67.5924 50.1944 70.6497 48.1282C73.3746 46.2617 75.0029 43.262 75.0029 40.4623C75.0029 37.5961 73.4078 34.4964 70.6497 32.6634C67.6589 30.6302 63.7707 30.3636 59.9824 30.297H54.6655V50.4279ZM37.6843 33.5631C42.4365 33.5631 46.2247 36.5961 46.2247 40.3958C46.2247 44.0953 42.3369 47.2948 37.6843 47.2948C33.0654 47.2948 29.1772 44.0953 29.1772 40.3958C29.1772 36.5961 32.9655 33.5631 37.6843 33.5631ZM37.6843 29.9302C30.3736 29.9302 24.4585 34.6298 24.4585 40.4622C24.4585 46.2949 30.4732 50.9278 37.6843 50.9278C44.9287 50.9278 50.9436 46.2949 50.9436 40.4622C50.9435 34.6298 45.0283 29.9302 37.6843 29.9302ZM37.6231 51.799C30.1439 51.799 23.5287 46.9639 23.5287 40.4623C23.5287 33.9707 30.0316 29.0591 37.6231 29.0591C45.2461 29.0591 51.7508 33.9694 51.7508 40.4623C51.7508 46.965 45.1339 51.799 37.6231 51.799Z" fill="white"/>
</svg>
